<svg viewBox="0 0 24 24" class=""
     style="display: inline-block; height: 24px; width: 24px; user-select: none; cursor: inherit; transition: all 450ms cubic-bezier(0.23, 1, 0.32, 1) 0ms; color: rgb(255, 255, 255); background-color: transparent;">
    <g transform="">
        <g>
            <path d="M 1 12, A 1 1, 0, 0, 0, 23 12, A 1 1, 0, 0, 0, 1 12" stroke="rgba(169, 169, 169, 1)"
                  fill="transparent" stroke-width="1.5"></path>
            <path d="M 8 22, A 2 2, 0, 0, 0, 9 21, L 9 18, A 4 4, 0, 0, 1, 11 15, A 8 8, 0, 0, 1, 7 14, A 4 4, 0, 0, 1, 7 8, A 4 4, 0, 0, 1, 7 6, A 4 4, 0, 0, 1, 8 5, A 4 4, 0, 0, 1, 10 7, A 6 6, 0, 0, 1, 15 7, A 4 4, 0, 0, 1, 17 5, A 4 4, 0, 0, 1, 18 6, A 6 6, 0, 0, 1, 18 8, A 4 4, 0, 0, 1, 18 14, A 8 8, 0, 0, 1, 14 15, A 4 4, 0, 0, 1, 16 19, L 16 21, A 2 2, 0, 0, 0, 17 22, A 12 12, 0, 0, 1, 8 22"
                  stroke="transparent" fill="rgba(169, 169, 169, 1)" stroke-width="0"></path>
            <path d="M 9 19, A 3 3, 0, 0, 1, 6.5, 18, A 3 3, 0, 0, 0, 4, 16, A 1 1, 0, 0, 1, 4, 15.5, A 3 3, 0, 0, 1, 6.5, 16, A 2 2, 0, 0, 0, 10, 16.5, L 9 19"
                  stroke="transparent" fill="rgba(169, 169, 169, 1)" stroke-width="0"></path>
        </g>
    </g>
</svg>